# xmcd
#
# Track frame offsets: 
#        150
#        6711
#        26527
#        45285
#        65072
#        74454
#        94277
#        116242
#        130812
#        150978
#        166993
#        181846
#        201828
#        220119
#
# Disc length: 3220 seconds
#
# Revision: 0
# Processed by: cddbd v1.5.1PL2 Copyright (c) Steve Scherf et al.
# Submitted via: ExactAudioCopy v0.95b4
#
DISCID=c40c920e
DTITLE=C-LOC - CAMP III
DYEAR=2000
DGENRE=Rap
TTITLE0=On The Wire
TTITLE1=They Ain't Bout No Trouble
TTITLE2=Camp Camp
TTITLE3=Not A Thang Change
TTITLE4=Freestyle
TTITLE5=B Get Off Me
TTITLE6=I Got Mine
TTITLE7=We Fuckin Tonight
TTITLE8=Real Shit
TTITLE9=Shit Real
TTITLE10=Boosie
TTITLE11=Twist It Up
TTITLE12=Outlaws
TTITLE13=Down South
EXTD=
EXTT0=
EXTT1=
EXTT2=
EXTT3=
EXTT4=
EXTT5=
EXTT6=
EXTT7=
EXTT8=
EXTT9=
EXTT10=
EXTT11=
EXTT12=
EXTT13=
PLAYORDER=
